<?xml version="1.0" encoding="iso-8859-1"?>
<!-- Generator: Adobe Illustrator 19.0.0, SVG Export Plug-In . SVG Version: 6.00 Build 0)  -->
<svg version="1.1" id="Layer_1" xmlns="http://www.w3.org/2000/svg" xmlns:xlink="http://www.w3.org/1999/xlink" x="0px" y="0px"
	 viewBox="0 0 512 512" style="enable-background:new 0 0 512 512;" xml:space="preserve">
<g>
	<g>
		<path d="M512,382.68V7.918H0V382.68h174.186v63.34h-33.924l-29.031,58.062h289.539l-29.031-58.062h-39.202v-63.34H512z
			 M15.835,23.753h480.33v137.503l-48.714-24.864c0.794-3.102,1.209-6.344,1.209-9.711c0-21.829-17.758-39.588-39.588-39.588
			s-39.588,17.758-39.588,39.588c0,4.186,0.695,8.368,2.027,12.38l-43.573,24.827c-7.401-8.44-18.212-13.455-29.713-13.455
			c-12.484,0-24.16,5.979-31.504,15.658l-51.468-24.582c0.761-3.099,1.159-6.309,1.159-9.55c0-21.829-17.758-39.588-39.588-39.588
			c-21.829,0-39.588,17.758-39.588,39.588c0,3.437,0.486,6.89,1.395,10.245L15.835,203.602V23.753z M432.825,126.68
			c0,3.671-0.772,7.036-2.295,10.007l-0.133,0.272c-3.809,8.186-12.179,13.475-21.325,13.475c-8.513,0-16.39-4.57-20.559-11.926
			l-0.004-0.008c-2.086-3.673-3.189-7.759-3.189-11.819c0-13.097,10.656-23.753,23.753-23.753
			C422.169,102.928,432.825,113.584,432.825,126.68z M321.979,190.021c0,13.097-10.656,23.753-23.753,23.753
			c-13.097,0-23.753-10.656-23.753-23.753c0-3.582,0.797-7.032,2.4-10.324c3.878-8.158,12.257-13.428,21.353-13.428
			c8.513,0,16.39,4.57,20.559,11.926l0.004,0.008C320.876,181.874,321.979,185.96,321.979,190.021z M200.577,131.959
			c0,4.01-0.978,7.915-2.842,11.321c-4.16,7.668-12.173,12.432-20.911,12.432c-9.069,0-17.191-5.027-21.196-13.119l-0.015-0.029
			c-1.663-3.325-2.542-6.994-2.542-10.605c0-13.097,10.655-23.753,23.753-23.753C189.922,108.206,200.577,118.862,200.577,131.959z
			 M15.835,221.305l129.85-64.925c7.376,9.501,18.724,15.166,31.14,15.166c12.559,0,24.212-5.924,31.617-15.743l51.413,24.554
			c-0.799,3.137-1.216,6.366-1.216,9.663c0,21.829,17.758,39.588,39.588,39.588s39.588-17.757,39.588-39.587
			c0-4.186-0.695-8.368-2.027-12.38l43.573-24.827c7.401,8.44,18.212,13.454,29.713,13.454c12.495,0,24.131-5.948,31.458-15.631
			l55.634,28.396v103.359H15.835V221.305z M361.952,461.856l13.196,26.392H136.852l13.196-26.392h142.901v-15.835H190.021v-63.34
			h126.68v79.175H361.952z M15.835,366.845v-68.619h480.33v68.619H15.835z"/>
	</g>
</g>
<g>
	<g>
		<polygon points="210.494,50.144 187.062,73.576 198.258,84.775 217.052,65.979 266.557,65.979 266.557,50.144 		"/>
	</g>
</g>
<g>
	<g>
		<rect x="287.67" y="50.144" width="73.897" height="15.835"/>
	</g>
</g>
<g>
	<g>
		<rect x="287.67" y="81.814" width="58.062" height="15.835"/>
	</g>
</g>
<g>
	<g>
		<rect x="287.67" y="113.485" width="21.113" height="15.835"/>
	</g>
</g>
<g>
	<g>
		<rect x="208.495" y="324.619" width="95.01" height="15.835"/>
	</g>
</g>
<g>
	<g>
		<rect x="319.34" y="324.619" width="21.113" height="15.835"/>
	</g>
</g>
<g>
	<g>
		<rect x="171.546" y="324.619" width="21.113" height="15.835"/>
	</g>
</g>
<g>
</g>
<g>
</g>
<g>
</g>
<g>
</g>
<g>
</g>
<g>
</g>
<g>
</g>
<g>
</g>
<g>
</g>
<g>
</g>
<g>
</g>
<g>
</g>
<g>
</g>
<g>
</g>
<g>
</g>
</svg>
